<mxfile host="app.diagrams.net" modified="2023-10-09T18:05:36.040Z" agent="Mozilla/5.0 (Windows NT 10.0; Win64; x64) AppleWebKit/537.36 (KHTML, like Gecko) Chrome/114.0.0.0 Safari/537.36" etag="Y7MZzt5ri-wne4boJyBr" version="22.0.4" type="device">
  <diagram name="Página-1" id="CJVncaFzU2EaKEqudjij">
    <mxGraphModel dx="860" dy="655" grid="1" gridSize="10" guides="1" tooltips="1" connect="1" arrows="1" fold="1" page="1" pageScale="1" pageWidth="827" pageHeight="1169" math="0" shadow="0">
      <root>
        <mxCell id="0" />
        <mxCell id="1" parent="0" />
        <mxCell id="Smn-OVraqz0I6QvSDbwM-1" value="PROMOCIÓN" style="swimlane;childLayout=stackLayout;horizontal=1;startSize=50;horizontalStack=0;rounded=1;fontSize=14;fontStyle=0;strokeWidth=2;resizeParent=0;resizeLast=1;shadow=0;dashed=0;align=center;arcSize=4;whiteSpace=wrap;html=1;" vertex="1" parent="1">
          <mxGeometry x="333.5" y="360" width="160" height="120" as="geometry" />
        </mxCell>
        <mxCell id="Smn-OVraqz0I6QvSDbwM-2" value="&lt;u&gt;Código P&lt;br&gt;&lt;/u&gt;nombre&lt;br&gt;población&lt;br&gt;plano situación" style="align=left;strokeColor=none;fillColor=none;spacingLeft=4;fontSize=12;verticalAlign=top;resizable=0;rotatable=0;part=1;html=1;" vertex="1" parent="Smn-OVraqz0I6QvSDbwM-1">
          <mxGeometry y="50" width="160" height="70" as="geometry" />
        </mxCell>
        <mxCell id="Smn-OVraqz0I6QvSDbwM-4" value="VIVIENDA" style="swimlane;childLayout=stackLayout;horizontal=1;startSize=50;horizontalStack=0;rounded=1;fontSize=14;fontStyle=0;strokeWidth=2;resizeParent=0;resizeLast=1;shadow=0;dashed=0;align=center;arcSize=4;whiteSpace=wrap;html=1;" vertex="1" parent="1">
          <mxGeometry x="590" y="70" width="160" height="220" as="geometry" />
        </mxCell>
        <mxCell id="Smn-OVraqz0I6QvSDbwM-5" value="&lt;u&gt;Identificador&lt;br&gt;&lt;/u&gt;superficie&lt;br&gt;nº habitaciones&lt;br&gt;nº baños&lt;br&gt;plano vivienda&lt;br&gt;foto&lt;br&gt;precio&lt;br&gt;N terraza&lt;br&gt;N jardín privado&lt;br&gt;N piscina&lt;br&gt;N garaje&lt;br&gt;" style="align=left;strokeColor=none;fillColor=none;spacingLeft=4;fontSize=12;verticalAlign=top;resizable=0;rotatable=0;part=1;html=1;" vertex="1" parent="Smn-OVraqz0I6QvSDbwM-4">
          <mxGeometry y="50" width="160" height="170" as="geometry" />
        </mxCell>
        <mxCell id="Smn-OVraqz0I6QvSDbwM-6" value="EMPRESAS" style="swimlane;childLayout=stackLayout;horizontal=1;startSize=50;horizontalStack=0;rounded=1;fontSize=14;fontStyle=0;strokeWidth=2;resizeParent=0;resizeLast=1;shadow=0;dashed=0;align=center;arcSize=4;whiteSpace=wrap;html=1;" vertex="1" parent="1">
          <mxGeometry x="90" y="130" width="160" height="160" as="geometry" />
        </mxCell>
        <mxCell id="Smn-OVraqz0I6QvSDbwM-7" value="&lt;u&gt;Nombre&lt;br&gt;&lt;/u&gt;tipo&lt;br&gt;dirección&lt;br&gt;teléfono&lt;br&gt;fax&lt;br&gt;correo electrónico&lt;br&gt;importe contrato" style="align=left;strokeColor=none;fillColor=none;spacingLeft=4;fontSize=12;verticalAlign=top;resizable=0;rotatable=0;part=1;html=1;" vertex="1" parent="Smn-OVraqz0I6QvSDbwM-6">
          <mxGeometry y="50" width="160" height="110" as="geometry" />
        </mxCell>
        <mxCell id="Smn-OVraqz0I6QvSDbwM-8" value="" style="endArrow=none;html=1;rounded=0;" edge="1" parent="1" source="Smn-OVraqz0I6QvSDbwM-11" target="Smn-OVraqz0I6QvSDbwM-1">
          <mxGeometry relative="1" as="geometry">
            <mxPoint x="280" y="460" as="sourcePoint" />
            <mxPoint x="440" y="460" as="targetPoint" />
          </mxGeometry>
        </mxCell>
        <mxCell id="Smn-OVraqz0I6QvSDbwM-9" value="" style="endArrow=none;html=1;rounded=0;" edge="1" parent="1" source="Smn-OVraqz0I6QvSDbwM-13" target="Smn-OVraqz0I6QvSDbwM-1">
          <mxGeometry relative="1" as="geometry">
            <mxPoint x="280" y="460" as="sourcePoint" />
            <mxPoint x="440" y="460" as="targetPoint" />
          </mxGeometry>
        </mxCell>
        <mxCell id="Smn-OVraqz0I6QvSDbwM-12" value="" style="endArrow=none;html=1;rounded=0;" edge="1" parent="1" source="Smn-OVraqz0I6QvSDbwM-6" target="Smn-OVraqz0I6QvSDbwM-11">
          <mxGeometry relative="1" as="geometry">
            <mxPoint x="413" y="180" as="sourcePoint" />
            <mxPoint x="413" y="360" as="targetPoint" />
          </mxGeometry>
        </mxCell>
        <mxCell id="Smn-OVraqz0I6QvSDbwM-11" value="CONTRATA&lt;br&gt;NxM" style="shape=rhombus;perimeter=rhombusPerimeter;whiteSpace=wrap;html=1;align=center;" vertex="1" parent="1">
          <mxGeometry x="110" y="390" width="120" height="60" as="geometry" />
        </mxCell>
        <mxCell id="Smn-OVraqz0I6QvSDbwM-14" value="" style="endArrow=none;html=1;rounded=0;" edge="1" parent="1" source="Smn-OVraqz0I6QvSDbwM-4" target="Smn-OVraqz0I6QvSDbwM-13">
          <mxGeometry relative="1" as="geometry">
            <mxPoint x="414" y="670" as="sourcePoint" />
            <mxPoint x="414" y="480" as="targetPoint" />
          </mxGeometry>
        </mxCell>
        <mxCell id="Smn-OVraqz0I6QvSDbwM-13" value="FORMADA&lt;br&gt;1xN" style="shape=rhombus;perimeter=rhombusPerimeter;whiteSpace=wrap;html=1;align=center;" vertex="1" parent="1">
          <mxGeometry x="610" y="390" width="120" height="60" as="geometry" />
        </mxCell>
        <mxCell id="Smn-OVraqz0I6QvSDbwM-15" value="(1,n)" style="text;html=1;align=center;verticalAlign=middle;resizable=0;points=[];autosize=1;strokeColor=none;fillColor=none;" vertex="1" parent="1">
          <mxGeometry x="160" y="328" width="50" height="30" as="geometry" />
        </mxCell>
        <mxCell id="Smn-OVraqz0I6QvSDbwM-16" value="(1,n)" style="text;html=1;align=center;verticalAlign=middle;resizable=0;points=[];autosize=1;strokeColor=none;fillColor=none;" vertex="1" parent="1">
          <mxGeometry x="250" y="400" width="50" height="30" as="geometry" />
        </mxCell>
        <mxCell id="Smn-OVraqz0I6QvSDbwM-17" value="(1,1)" style="text;html=1;align=center;verticalAlign=middle;resizable=0;points=[];autosize=1;strokeColor=none;fillColor=none;" vertex="1" parent="1">
          <mxGeometry x="530" y="400" width="50" height="30" as="geometry" />
        </mxCell>
        <mxCell id="Smn-OVraqz0I6QvSDbwM-18" value="(1,n)" style="text;html=1;align=center;verticalAlign=middle;resizable=0;points=[];autosize=1;strokeColor=none;fillColor=none;" vertex="1" parent="1">
          <mxGeometry x="630" y="328" width="50" height="30" as="geometry" />
        </mxCell>
      </root>
    </mxGraphModel>
  </diagram>
</mxfile>
